<svg version="1.1" id="Layer_1" xmlns="http://www.w3.org/2000/svg" xmlns:xlink="http://www.w3.org/1999/xlink" x="0px"
	y="0px" height="64" width="64" viewBox="0 0 512 512" enable-background="new 0 0 512 512" xml:space="preserve">
	<path fill="#00f5ff" opacity="1.000000" stroke="none" d="
M353.751740,64.255127 
	C371.327545,77.695160 384.464386,94.354897 395.091675,113.230759 
	C403.505554,128.175262 409.861206,143.884308 413.171600,160.673615 
	C415.029999,170.098862 416.230377,179.713226 416.908478,189.300293 
	C418.693512,214.537308 414.606140,239.101898 404.792938,262.256226 
	C396.139526,282.674103 386.571686,302.832733 375.711670,322.152557 
	C363.829926,343.289978 350.510010,363.678162 336.884186,383.760040 
	C322.285645,405.275482 306.816071,426.213867 291.297272,447.084839 
	C283.790009,457.181244 275.552521,466.772034 267.171722,476.169098 
	C260.949432,483.145905 252.944260,483.143616 246.713120,476.029297 
	C237.341721,465.329620 228.057312,454.475372 219.686646,442.993713 
	C201.687973,418.305817 183.816666,393.496735 166.815521,368.119385 
	C154.456146,349.670746 143.276764,330.404999 132.116364,311.187012 
	C120.203323,290.672913 110.640076,269.077087 103.622253,246.328568 
	C97.114555,225.233597 95.669304,203.620316 97.222198,181.936050 
	C98.762817,160.423065 105.157974,139.913254 114.860100,120.591469 
	C121.679329,107.010994 130.145935,94.547852 140.269836,83.104179 
	C159.248856,61.651016 182.224045,46.452515 209.769241,38.895191 
	C221.306107,35.729923 233.426010,34.001007 245.383438,33.247993 
	C257.739227,32.469891 270.372894,32.583096 282.602295,34.309269 
	C294.854706,36.038696 307.341583,38.880219 318.656219,43.729607 
	C330.913605,48.983051 341.935455,57.119244 353.751740,64.255127 
M197.342072,315.196014 
	C223.334366,327.664734 250.527084,331.677094 279.044250,327.158112 
	C354.291290,315.234070 405.672516,241.351852 390.445648,166.826569 
	C374.083344,86.743744 294.544861,39.474663 216.124756,63.229042 
	C152.682068,82.446587 111.562309,148.690430 122.738762,214.104782 
	C130.568390,259.930664 155.611115,293.328064 197.342072,315.196014 
z" />
	<path fill="#FEFEFF" opacity="1.000000" stroke="none" d="
M197.003082,315.039185 
	C155.611115,293.328064 130.568390,259.930664 122.738762,214.104782 
	C111.562309,148.690430 152.682068,82.446587 216.124756,63.229042 
	C294.544861,39.474663 374.083344,86.743744 390.445648,166.826569 
	C405.672516,241.351852 354.291290,315.234070 279.044250,327.158112 
	C250.527084,331.677094 223.334366,327.664734 197.003082,315.039185 
M332.332733,140.654785 
	C331.615112,126.980896 331.620056,127.054840 318.869232,127.904831 
	C316.112091,128.088623 315.074768,129.119431 315.075775,131.806015 
	C315.077026,135.096588 314.804596,138.387283 313.813324,141.681671 
	C309.425110,141.011078 308.083649,142.872101 308.185547,147.253616 
	C308.460052,159.059082 308.278931,170.875137 308.278687,182.686996 
	C308.278595,185.964249 308.278656,189.241501 308.278656,192.754684 
	C310.973114,192.882431 312.945984,192.975967 315.022125,193.993317 
	C315.043427,210.771866 315.048218,227.550476 315.099426,244.328934 
	C315.110077,247.818909 314.440033,250.942490 310.211670,250.970978 
	C301.587067,251.029068 292.960388,250.782562 284.317413,249.768219 
	C284.304565,205.292419 284.310364,160.816605 284.267151,116.340828 
	C284.254730,103.533226 277.667969,97.018440 264.846313,97.008087 
	C241.525665,96.989258 218.204971,96.996658 194.884308,97.004898 
	C181.145813,97.009758 174.844620,103.355370 174.839905,117.233620 
	C174.826920,155.379562 174.834717,193.525513 174.834717,231.671463 
	C174.834717,249.161957 174.842194,266.652466 174.829102,284.142944 
	C174.827179,286.712219 174.531967,289.058044 178.481567,289.046326 
	C212.462799,288.945526 246.444519,288.957977 280.425842,289.040863 
	C283.646667,289.048706 284.370758,287.624451 284.310608,284.808014 
	C284.200287,279.646881 284.302277,274.481171 285.176575,269.069855 
	C293.813141,268.769135 302.459137,268.630676 311.084045,268.129517 
	C323.933380,267.382935 332.085449,258.633026 332.147644,245.658234 
	C332.231445,228.182327 332.199951,210.705872 333.070831,193.103821 
	C334.974701,192.958740 336.878571,192.813675 338.768066,192.669693 
	C338.768066,175.483582 338.768066,158.863449 338.768066,142.078903 
	C336.423340,141.857681 334.462677,141.672714 332.332733,140.654785 
z" />
	<path fill="#00f5ff" opacity="1.000000" stroke="none" d="
M284.315796,269.317383 
	C284.302277,274.481171 284.200287,279.646881 284.310608,284.808014 
	C284.370758,287.624451 283.646667,289.048706 280.425842,289.040863 
	C246.444519,288.957977 212.462799,288.945526 178.481567,289.046326 
	C174.531967,289.058044 174.827179,286.712219 174.829102,284.142944 
	C174.842194,266.652466 174.834717,249.161957 174.834717,231.671463 
	C174.834717,193.525513 174.826920,155.379562 174.839905,117.233620 
	C174.844620,103.355370 181.145813,97.009758 194.884308,97.004898 
	C218.204971,96.996658 241.525665,96.989258 264.846313,97.008087 
	C277.667969,97.018440 284.254730,103.533226 284.267151,116.340828 
	C284.310364,160.816605 284.304565,205.292419 284.253845,250.706787 
	C284.232117,257.536011 284.273956,263.426697 284.315796,269.317383 
M270.919281,160.015442 
	C270.925629,146.684250 270.999329,133.352585 270.909332,120.022049 
	C270.865601,113.541725 268.189972,110.987007 261.729797,110.978172 
	C240.233154,110.948784 218.736420,110.948303 197.239792,110.978569 
	C190.790344,110.987648 188.139252,113.545036 188.092728,120.052567 
	C187.999771,133.049881 187.984955,146.049042 188.096954,159.046051 
	C188.160934,166.471390 190.766129,168.977463 198.079407,168.988312 
	C219.076126,169.019440 240.072937,169.019775 261.069641,168.987152 
	C267.785736,168.976715 269.287170,167.670609 270.919281,160.015442 
z" />
	<path fill="#BAC2E6" opacity="1.000000" stroke="none" d="
M284.746185,269.193604 
	C284.273956,263.426697 284.232117,257.536011 284.262451,251.153442 
	C292.960388,250.782562 301.587067,251.029068 310.211670,250.970978 
	C314.440033,250.942490 315.110077,247.818909 315.099426,244.328934 
	C315.048218,227.550476 315.043427,210.771866 315.443909,193.509247 
	C321.316467,193.093323 326.767212,193.161484 332.217957,193.229645 
	C332.199951,210.705872 332.231445,228.182327 332.147644,245.658234 
	C332.085449,258.633026 323.933380,267.382935 311.084045,268.129517 
	C302.459137,268.630676 293.813141,268.769135 284.746185,269.193604 
z" />
	<path fill="#929DE1" opacity="1.000000" stroke="none" d="
M332.644409,193.166733 
	C326.767212,193.161484 321.316467,193.093323 315.392273,193.047333 
	C312.945984,192.975967 310.973114,192.882431 308.278656,192.754684 
	C308.278656,189.241501 308.278595,185.964249 308.278687,182.686996 
	C308.278931,170.875137 308.460052,159.059082 308.185547,147.253616 
	C308.083649,142.872101 309.425110,141.011078 314.725067,141.751068 
	C321.258545,141.709534 326.880280,141.598633 332.502014,141.487732 
	C334.462677,141.672714 336.423340,141.857681 338.768066,142.078903 
	C338.768066,158.863449 338.768066,175.483582 338.768066,192.669693 
	C336.878571,192.813675 334.974701,192.958740 332.644409,193.166733 
z" />
	<path fill="#B8C1E6" opacity="1.000000" stroke="none" d="
M332.417358,141.071259 
	C326.880280,141.598633 321.258545,141.709534 315.143646,141.749176 
	C314.804596,138.387283 315.077026,135.096588 315.075775,131.806015 
	C315.074768,129.119431 316.112091,128.088623 318.869232,127.904831 
	C331.620056,127.054840 331.615112,126.980896 332.417358,141.071259 
z" />
	<path fill="#B7C0E5" opacity="1.000000" stroke="none" d="
M270.893799,160.455765 
	C269.287170,167.670609 267.785736,168.976715 261.069641,168.987152 
	C240.072937,169.019775 219.076126,169.019440 198.079407,168.988312 
	C190.766129,168.977463 188.160934,166.471390 188.096954,159.046051 
	C187.984955,146.049042 187.999771,133.049881 188.092728,120.052567 
	C188.139252,113.545036 190.790344,110.987648 197.239792,110.978569 
	C218.736420,110.948303 240.233154,110.948784 261.729797,110.978172 
	C268.189972,110.987007 270.865601,113.541725 270.909332,120.022049 
	C270.999329,133.352585 270.925629,146.684250 270.893799,160.455765 
M225.987320,138.882156 
	C225.993958,143.689529 225.696411,148.526474 226.159210,153.289520 
	C226.340469,155.155273 228.226761,156.855377 229.336502,158.630905 
	C230.552536,156.794846 232.579224,155.059998 232.823608,153.102631 
	C233.415512,148.361725 233.177002,143.517105 234.052490,138.777496 
	C238.353943,140.413498 242.593109,142.256226 246.988510,143.580383 
	C248.669510,144.086792 250.707901,143.407013 252.583420,143.267776 
	C251.923431,141.454651 251.731750,138.525467 250.523666,138.018570 
	C244.820862,135.625702 238.839844,133.895844 232.944595,131.050354 
	C232.933640,129.067032 233.335938,126.957680 232.781570,125.140106 
	C232.334229,123.673378 230.732483,122.558746 229.642868,121.287910 
	C228.448883,122.621223 226.763504,123.774269 226.190811,125.335495 
	C225.539688,127.110458 225.882935,129.250183 225.059937,131.326462 
	C219.670914,133.266571 214.169785,134.959564 208.970871,137.318649 
	C207.653183,137.916580 207.298309,140.636383 206.501022,142.381195 
	C208.389893,142.657608 210.472763,143.582794 212.130753,143.087051 
	C216.829422,141.682144 221.354279,139.695923 225.987320,138.882156 
z" />
	<path fill="#919DE1" opacity="1.000000" stroke="none" d="
M225.793945,131.231354 
	C225.882935,129.250183 225.539688,127.110458 226.190811,125.335495 
	C226.763504,123.774269 228.448883,122.621223 229.642868,121.287910 
	C230.732483,122.558746 232.334229,123.673378 232.781570,125.140106 
	C233.335938,126.957680 232.933640,129.067032 232.939148,131.921417 
	C233.046875,134.766434 233.160019,136.740356 233.273163,138.714294 
	C233.177002,143.517105 233.415512,148.361725 232.823608,153.102631 
	C232.579224,155.059998 230.552536,156.794846 229.336517,158.630920 
	C228.226761,156.855377 226.340469,155.155273 226.159210,153.289520 
	C225.696411,148.526474 225.993958,143.689529 225.987808,137.988678 
	C225.923508,135.140579 225.858734,133.185974 225.793945,131.231354 
z" />
	<path fill="#FCFCFE" opacity="1.000000" stroke="none" d="
M233.662827,138.745895 
	C233.160019,136.740356 233.046875,134.766434 232.945877,132.361023 
	C238.839844,133.895844 244.820862,135.625702 250.523666,138.018570 
	C251.731750,138.525467 251.923431,141.454651 252.583420,143.267776 
	C250.707901,143.407013 248.669510,144.086792 246.988510,143.580383 
	C242.593109,142.256226 238.353943,140.413498 233.662827,138.745895 
z" />
	<path fill="#FCFDFE" opacity="1.000000" stroke="none" d="
M225.426941,131.278900 
	C225.858734,133.185974 225.923508,135.140579 225.967957,137.516922 
	C221.354279,139.695923 216.829422,141.682144 212.130753,143.087051 
	C210.472763,143.582794 208.389893,142.657608 206.501022,142.381195 
	C207.298309,140.636383 207.653183,137.916580 208.970871,137.318649 
	C214.169785,134.959564 219.670914,133.266571 225.426941,131.278900 
z" />
</svg>