<svg version="1.1" id="Layer_1" xmlns="http://www.w3.org/2000/svg" xmlns:xlink="http://www.w3.org/1999/xlink" x="0px"
	y="0px" height="64" width="64" viewBox="0 0 512 512" enable-background="new 0 0 512 512" xml:space="preserve">
	<path fill="#e74c3c" opacity="1.000000" stroke="none" d="
M125.001465,298.000732 
	C112.961418,275.677582 104.014107,252.534164 99.224678,228.014526 
	C96.012558,211.569977 96.338730,194.857437 97.884766,178.123764 
	C99.796616,157.430450 106.237274,138.136490 115.273949,119.715652 
	C121.848045,106.314651 130.459839,94.165611 140.447845,82.905457 
	C161.580322,59.081375 187.579697,43.575043 218.446198,36.441441 
	C227.496765,34.349754 236.950256,33.454987 246.257568,33.136391 
	C264.731964,32.504002 283.140472,32.819012 301.261688,37.839382 
	C320.836304,43.262390 338.320648,52.260323 354.344788,64.686684 
	C369.666473,76.568291 381.825195,91.094078 391.817780,107.452065 
	C402.715546,125.291870 410.025879,144.534134 414.213776,165.164886 
	C417.388794,180.805817 417.524628,196.472092 416.792786,212.115967 
	C416.011322,228.822174 411.447083,244.971771 405.651550,260.651428 
	C397.508636,282.681915 387.074524,303.645996 374.790985,323.640137 
	C362.453186,343.722626 350.340973,363.989471 336.995392,383.395294 
	C320.671570,407.131683 303.290497,430.147675 286.106689,453.282104 
	C280.133820,461.323334 273.648224,469.027008 266.913239,476.445831 
	C260.998230,482.961456 252.861206,483.030212 247.049271,476.381683 
	C237.528748,465.490692 228.085220,454.459442 219.537003,442.806793 
	C202.042435,418.958557 184.643707,395.006592 168.198959,370.432556 
	C155.464874,351.403534 144.203812,331.386261 132.375565,311.755493 
	C129.755722,307.407501 127.504547,302.837311 125.001465,298.000732 
M198.659409,315.884399 
	C224.482651,327.812317 251.375092,331.576752 279.537354,327.107635 
	C354.041229,315.284485 405.440308,241.421860 390.560089,167.313538 
	C375.015350,89.895828 300.207794,42.414192 223.329803,61.169659 
	C156.194412,77.548271 110.994766,146.116898 122.721474,214.103317 
	C130.726746,260.514465 156.228119,294.105988 198.659409,315.884399 
z" />
	<path fill="#FFFEFE" opacity="1.000000" stroke="none" d="
M198.323486,315.720123 
	C156.228119,294.105988 130.726746,260.514465 122.721474,214.103317 
	C110.994766,146.116898 156.194412,77.548271 223.329803,61.169659 
	C300.207794,42.414192 375.015350,89.895828 390.560089,167.313538 
	C405.440308,241.421860 354.041229,315.284485 279.537354,327.107635 
	C251.375092,331.576752 224.482651,327.812317 198.323486,315.720123 
M188.344086,125.847069 
	C171.288666,143.472534 161.922867,164.597763 161.141983,189.038055 
	C159.211212,249.467987 209.335083,295.129791 269.433289,288.111481 
	C322.970673,281.859344 361.736450,229.570724 351.541962,176.665298 
	C344.273926,138.946838 322.234680,112.946259 285.569183,101.562965 
	C249.187363,90.267761 216.551346,98.965767 188.344086,125.847069 
z" />
	<path fill="#e74c3c" opacity="1.000000" stroke="none" d="
M188.592804,125.594315 
	C216.551346,98.965767 249.187363,90.267761 285.569183,101.562965 
	C322.234680,112.946259 344.273926,138.946838 351.541962,176.665298 
	C361.736450,229.570724 322.970673,281.859344 269.433289,288.111481 
	C209.335083,295.129791 159.211212,249.467987 161.141983,189.038055 
	C161.922867,164.597763 171.288666,143.472534 188.592804,125.594315 
M317.985931,179.430618 
	C313.487671,177.977325 309.064667,175.663239 304.474396,175.261780 
	C296.536621,174.567551 288.492188,174.931030 280.498199,175.108307 
	C276.444275,175.198212 274.790649,173.700226 274.882324,169.571609 
	C275.063538,161.411133 275.006073,153.242432 274.897491,145.079132 
	C274.742859,133.451569 267.651703,125.874374 257.064697,125.844597 
	C246.442993,125.814713 239.277115,133.359879 239.105484,144.941666 
	C238.989471,152.771423 239.100220,160.604309 239.062210,168.435562 
	C239.031830,174.692780 238.722610,175.016876 232.640778,175.050797 
	C224.976212,175.093552 217.310745,175.012299 209.646545,175.081665 
	C197.545074,175.191177 189.884537,182.109650 189.849213,192.859665 
	C189.813049,203.863708 197.494598,210.824615 209.877350,210.921097 
	C217.708328,210.982117 225.544907,211.105286 233.369675,210.879120 
	C237.781784,210.751587 239.233734,212.557083 239.126465,216.796997 
	C238.924255,224.789795 239.001450,232.792511 239.099823,240.789413 
	C239.243423,252.464035 246.275986,260.088531 256.810150,260.153931 
	C267.644989,260.221161 274.767944,252.609558 274.902954,240.672394 
	C274.995300,232.508698 275.041870,224.341324 274.894379,216.179474 
	C274.824097,212.289459 276.424500,210.841156 280.246429,210.902573 
	C288.741913,211.039078 297.244659,211.064835 305.738403,210.871338 
	C313.746948,210.688858 320.172302,207.237793 323.020935,199.569473 
	C325.695007,192.371017 324.628693,185.419159 317.985931,179.430618 
z" />
	<path fill="#D69090" opacity="1.000000" stroke="none" d="
M318.258484,179.677063 
	C324.628693,185.419159 325.695007,192.371017 323.020935,199.569473 
	C320.172302,207.237793 313.746948,210.688858 305.738403,210.871338 
	C297.244659,211.064835 288.741913,211.039078 280.246429,210.902573 
	C276.424500,210.841156 274.824097,212.289459 274.894379,216.179474 
	C275.041870,224.341324 274.995300,232.508698 274.902954,240.672394 
	C274.767944,252.609558 267.644989,260.221161 256.810150,260.153931 
	C246.275986,260.088531 239.243423,252.464035 239.099823,240.789413 
	C239.001450,232.792511 238.924255,224.789795 239.126465,216.796997 
	C239.233734,212.557083 237.781784,210.751587 233.369675,210.879120 
	C225.544907,211.105286 217.708328,210.982117 209.877350,210.921097 
	C197.494598,210.824615 189.813049,203.863708 189.849213,192.859665 
	C189.884537,182.109650 197.545074,175.191177 209.646545,175.081665 
	C217.310745,175.012299 224.976212,175.093552 232.640778,175.050797 
	C238.722610,175.016876 239.031830,174.692780 239.062210,168.435562 
	C239.100220,160.604309 238.989471,152.771423 239.105484,144.941666 
	C239.277115,133.359879 246.442993,125.814713 257.064697,125.844597 
	C267.651703,125.874374 274.742859,133.451569 274.897491,145.079132 
	C275.006073,153.242432 275.063538,161.411133 274.882324,169.571609 
	C274.790649,173.700226 276.444275,175.198212 280.498199,175.108307 
	C288.492188,174.931030 296.536621,174.567551 304.474396,175.261780 
	C309.064667,175.663239 313.487671,177.977325 318.258484,179.677063 
z" />
</svg>