<svg version="1.1" id="Layer_1" xmlns="http://www.w3.org/2000/svg" xmlns:xlink="http://www.w3.org/1999/xlink" x="0px"
	y="0px" height="64" width="64" viewBox="0 0 512 512" enable-background="new 0 0 512 512" xml:space="preserve">
	<path fill="#e3ff00" opacity="1.000000" stroke="none" d="
M283.261353,457.245667 
	C277.601135,463.900177 272.435577,470.519989 266.735321,476.641907 
	C260.978638,482.824371 252.782288,483.007599 247.280182,476.592285 
	C237.359497,465.025146 227.622147,453.245178 218.611862,440.964478 
	C200.840012,416.742065 183.180710,392.413788 166.284958,367.578186 
	C147.817551,340.432251 131.037369,312.180725 117.230095,282.351318 
	C108.686722,263.894073 101.952339,244.741394 98.888901,224.401352 
	C93.789078,190.540482 97.907883,158.073883 112.000290,126.832855 
	C119.318153,110.610107 128.822540,95.921608 140.743210,82.666969 
	C162.767700,58.177849 189.588196,42.484665 221.975540,35.784691 
	C239.571213,32.144665 257.286896,32.165325 274.834503,33.295174 
	C303.086761,35.114273 328.896057,45.084938 351.532928,62.276833 
	C369.661438,76.044777 384.019318,93.176666 395.089783,113.143051 
	C403.453278,128.227127 409.585785,144.079132 413.363098,160.877747 
	C417.528992,179.404434 417.996246,198.088394 416.092102,216.929153 
	C412.875946,248.751694 400.338654,277.395477 385.308044,304.958984 
	C374.164429,325.394470 362.096680,345.391937 349.347778,364.869171 
	C334.056488,388.230530 317.716644,410.911469 301.593994,433.719635 
	C295.930206,441.732025 289.565948,449.249268 283.261353,457.245667 
M180.847244,80.307625 
	C136.109497,112.790619 115.600777,156.616211 122.442635,211.499634 
	C131.491180,284.084473 197.668854,335.450317 270.750580,328.213043 
	C362.594818,319.117676 419.006897,221.859665 381.233063,137.720779 
	C346.552277,60.471405 251.840439,33.210056 180.847244,80.307625 
z" />
	<path fill="#FFFFFF" opacity="1.000000" stroke="none" d="
M181.153259,80.116547 
	C251.840439,33.210056 346.552277,60.471405 381.233063,137.720779 
	C419.006897,221.859665 362.594818,319.117676 270.750580,328.213043 
	C197.668854,335.450317 131.491180,284.084473 122.442635,211.499634 
	C115.600777,156.616211 136.109497,112.790619 181.153259,80.116547 
M228.122559,272.997375 
	C226.794418,273.017090 225.466156,273.031036 224.138153,273.057648 
	C220.520081,273.130127 220.663345,275.943176 221.111725,278.066986 
	C221.879044,281.701508 218.315796,286.496552 223.823257,288.902679 
	C224.108841,289.027466 224.480240,288.972992 224.811691,288.973053 
	C246.233932,288.976501 267.656281,288.998322 289.078217,288.919464 
	C290.243286,288.915192 292.383972,288.125580 292.414886,287.603546 
	C292.677277,283.170990 292.947235,278.648590 292.207184,274.325653 
	C292.064667,273.493134 287.510223,273.415863 284.996704,272.054077 
	C284.994812,256.372589 284.992950,240.691086 285.877441,225.002518 
	C292.980835,224.939651 292.984192,224.939651 292.995789,217.997971 
	C292.998810,216.182724 293.438843,214.186783 292.824249,212.605743 
	C292.269531,211.178650 290.643768,209.340912 289.321655,209.193115 
	C285.245148,208.737427 281.087982,209.003525 276.916443,208.156113 
	C271.611664,171.176926 266.306885,134.197754 261.006958,97.252350 
	C257.990967,97.252350 255.714157,97.252350 252.943848,97.252350 
	C247.625153,134.615265 242.331512,171.802246 236.098465,208.997055 
	C232.308151,209.007523 228.512054,208.904373 224.731064,209.097397 
	C223.590302,209.155640 221.552551,209.985687 221.522385,210.547882 
	C221.286148,214.950195 221.047531,219.443054 221.811005,223.729630 
	C221.958420,224.557343 226.496338,224.603104 229.003311,225.945663 
	C229.005173,241.627167 229.007034,257.308685 228.122559,272.997375 
z" />
	<path fill="#7C9FB1" opacity="1.000000" stroke="none" d="
M237.037872,208.989243 
	C242.331512,171.802246 247.625153,134.615265 252.943848,97.252350 
	C255.714157,97.252350 257.990967,97.252350 261.006958,97.252350 
	C266.306885,134.197754 271.611664,171.176926 276.473206,208.573807 
	C263.032593,208.990738 250.035233,208.989990 237.037872,208.989243 
z" />
	<path fill="#e3ff00" opacity="1.000000" stroke="none" d="
M284.991058,225.009583 
	C284.992950,240.691086 284.994812,256.372589 284.525818,272.525269 
	C265.706238,272.994385 247.357559,272.992279 229.008896,272.990173 
	C229.007034,257.308685 229.005173,241.627167 229.474182,225.474548 
	C248.293716,225.005493 266.642395,225.007538 284.991058,225.009583 
z" />
	<path fill="#B7D6E2" opacity="1.000000" stroke="none" d="
M285.434265,225.006042 
	C266.642395,225.007538 248.293716,225.005493 229.476990,225.006500 
	C226.496338,224.603104 221.958420,224.557343 221.811005,223.729630 
	C221.047531,219.443054 221.286148,214.950195 221.522385,210.547882 
	C221.552551,209.985687 223.590302,209.155640 224.731064,209.097397 
	C228.512054,208.904373 232.308151,209.007523 236.568176,208.993149 
	C250.035233,208.989990 263.032593,208.990738 276.496033,208.990372 
	C281.087982,209.003525 285.245148,208.737427 289.321655,209.193115 
	C290.643768,209.340912 292.269531,211.178650 292.824249,212.605743 
	C293.438843,214.186783 292.998810,216.182724 292.995789,217.997971 
	C292.984192,224.939651 292.980835,224.939651 285.434265,225.006042 
z" />
	<path fill="#B7D6E2" opacity="1.000000" stroke="none" d="
M228.565735,272.993774 
	C247.357559,272.992279 265.706238,272.994385 284.522980,272.993347 
	C287.510223,273.415863 292.064667,273.493134 292.207184,274.325653 
	C292.947235,278.648590 292.677277,283.170990 292.414886,287.603546 
	C292.383972,288.125580 290.243286,288.915192 289.078217,288.919464 
	C267.656281,288.998322 246.233932,288.976501 224.811691,288.973053 
	C224.480240,288.972992 224.108841,289.027466 223.823257,288.902679 
	C218.315796,286.496552 221.879044,281.701508 221.111725,278.066986 
	C220.663345,275.943176 220.520081,273.130127 224.138153,273.057648 
	C225.466156,273.031036 226.794418,273.017090 228.565735,272.993774 
z" />
</svg>