<svg version="1.1" id="Layer_1" xmlns="http://www.w3.org/2000/svg" xmlns:xlink="http://www.w3.org/1999/xlink" x="0px"
	y="0px" height="64" width="64" viewBox="0 0 512 512" enable-background="new 0 0 512 512" xml:space="preserve">
	<path fill="#3459db" opacity="1.000000" stroke="none" d="
M397.939362,279.854370 
	C380.725037,316.669098 359.565277,350.792358 336.865265,383.922058 
	C321.559235,406.260498 305.098267,427.815826 288.883636,449.519501 
	C282.020203,458.706360 274.745667,467.625916 267.131805,476.199738 
	C261.038452,483.061371 252.965820,483.148041 246.983063,476.312683 
	C237.481689,465.457275 228.049469,454.462769 219.552536,442.822968 
	C201.484070,418.071198 183.677505,393.110687 166.430008,367.781952 
	C147.506165,339.991364 130.309601,311.072571 116.343170,280.464844 
	C107.293617,260.632568 99.780640,240.030075 98.092110,217.983597 
	C97.194450,206.263153 96.384293,194.395660 97.219818,182.715088 
	C98.537193,164.298325 103.466064,146.597427 110.755501,129.523727 
	C119.206039,109.730453 130.844238,92.054749 145.897232,76.855927 
	C167.591095,54.951889 193.677490,40.169373 224.204498,35.391850 
	C240.757172,32.801338 257.934723,32.322903 274.687500,33.312153 
	C303.118164,34.990982 329.021851,45.131554 351.755463,62.434017 
	C369.984161,76.307808 384.288788,93.640579 395.426880,113.732147 
	C403.776642,128.793930 409.905945,144.657181 413.585571,161.362625 
	C417.652496,179.826706 418.051483,198.567459 416.095093,217.413147 
	C413.829346,239.238831 406.595551,259.535370 397.939362,279.854370 
M172.244293,299.266785 
	C203.900055,323.859039 239.551086,333.310120 279.169312,327.090912 
	C354.353973,315.288422 405.698059,241.228424 390.433411,166.806427 
	C375.378601,93.407578 307.453827,46.871067 233.187469,59.074337 
	C171.058731,69.283188 122.154266,125.642960 121.088562,188.515762 
	C120.329247,233.312851 137.346970,270.081879 172.244293,299.266785 
z" />
	<path fill="#FEFFFF" opacity="1.000000" stroke="none" d="
M171.951416,299.066650 
	C137.346970,270.081879 120.329247,233.312851 121.088562,188.515762 
	C122.154266,125.642960 171.058731,69.283188 233.187469,59.074337 
	C307.453827,46.871067 375.378601,93.407578 390.433411,166.806427 
	C405.698059,241.228424 354.353973,315.288422 279.169312,327.090912 
	C239.551086,333.310120 203.900055,323.859039 171.951416,299.066650 
M337.077148,264.046967 
	C337.077148,232.798874 337.077148,201.550797 337.077148,169.656708 
	C342.061279,169.656708 346.412476,169.656708 350.763672,169.656708 
	C350.915100,169.240753 351.066498,168.824799 351.217926,168.408844 
	C319.912720,142.968674 288.607513,117.528511 257.022308,91.860825 
	C225.422638,117.540985 194.084412,143.008698 162.746170,168.476395 
	C162.985367,168.987244 163.224548,169.498077 163.463745,170.008926 
	C167.844147,170.008926 172.224548,170.008926 176.893387,170.008926 
	C176.893387,202.082504 176.893387,233.532059 176.013474,264.972046 
	C173.894730,264.972046 171.776001,264.972046 169.452499,264.972046 
	C169.452499,270.591553 169.452499,275.606201 169.452499,280.669678 
	C228.057770,280.669678 286.213776,280.669678 344.527771,280.669678 
	C344.527771,275.326996 344.527771,270.321838 344.527771,264.981567 
	C341.742859,264.981567 339.424713,264.981567 337.077148,264.046967 
z" />
	<path fill="#173cc2" opacity="1.000000" stroke="none" d="
M176.893387,264.981598 
	C176.893387,233.532059 176.893387,202.082504 176.893387,170.008926 
	C172.224548,170.008926 167.844147,170.008926 163.463745,170.008926 
	C163.224548,169.498077 162.985367,168.987244 162.746170,168.476395 
	C194.084412,143.008698 225.422638,117.540985 257.022308,91.860825 
	C288.607513,117.528511 319.912720,142.968674 351.217926,168.408844 
	C351.066498,168.824799 350.915100,169.240753 350.763672,169.656708 
	C346.412476,169.656708 342.061279,169.656708 337.077148,169.656708 
	C337.077148,201.550797 337.077148,232.798874 336.616394,264.521271 
	C283.068237,264.990906 229.980820,264.986237 176.893387,264.981598 
M210.393829,252.895004 
	C211.219894,250.617981 212.745483,248.346527 212.763657,246.063065 
	C212.942520,223.588821 212.913834,201.112427 212.839508,178.636993 
	C212.821365,173.155411 209.861313,169.967102 205.289734,169.953766 
	C200.708939,169.940399 197.878708,173.104614 197.866486,178.637695 
	C197.816864,201.113281 197.799835,223.589172 197.870911,246.064636 
	C197.895432,253.820099 202.751083,256.718323 210.393829,252.895004 
M247.914917,222.500015 
	C247.913162,207.865479 247.967377,193.230591 247.880646,178.596558 
	C247.848373,173.153503 244.883881,169.950623 240.317581,169.952850 
	C235.757950,169.955093 232.921387,173.147308 232.910141,178.645172 
	C232.864182,201.095795 232.868500,223.546600 232.906372,245.997269 
	C232.915649,251.494110 235.690079,254.820175 240.116898,254.953384 
	C244.736008,255.092377 247.826431,251.619858 247.890671,245.950531 
	C247.975464,238.467896 247.913681,230.983612 247.914917,222.500015 
M270.377350,171.881943 
	C269.559845,174.142883 268.049896,176.398392 268.032043,178.665619 
	C267.855072,201.136902 267.900757,223.610153 267.942688,246.082748 
	C267.952850,251.522049 270.831085,254.881546 275.262115,254.956268 
	C279.718323,255.031433 282.892700,251.655426 282.908752,246.337570 
	C282.977173,223.698654 283.011841,201.059036 282.895508,178.420502 
	C282.857971,171.112213 277.842072,168.283600 270.377350,171.881943 
M317.967896,246.966522 
	C317.970520,224.336426 317.996399,201.706284 317.959778,179.076248 
	C317.950348,173.246826 315.097015,169.927231 310.383575,169.954224 
	C305.700104,169.981033 302.980621,173.289474 302.973358,179.191925 
	C302.946167,201.322800 302.949768,223.453751 302.972198,245.584625 
	C302.977722,251.041779 305.195190,254.206726 309.316589,254.874054 
	C313.392090,255.533966 316.364166,253.109955 317.967896,246.966522 
z" />
	<path fill="#4968d5" opacity="1.000000" stroke="none" d="
M176.453430,264.976807 
	C229.980820,264.986237 283.068237,264.990906 336.631134,264.988586 
	C339.424713,264.981567 341.742859,264.981567 344.527771,264.981567 
	C344.527771,270.321838 344.527771,275.326996 344.527771,280.669678 
	C286.213776,280.669678 228.057770,280.669678 169.452499,280.669678 
	C169.452499,275.606201 169.452499,270.591553 169.452499,264.972046 
	C171.776001,264.972046 173.894730,264.972046 176.453430,264.976807 
z" />
	<path fill="#FBFEFE" opacity="1.000000" stroke="none" d="
M210.092896,253.146118 
	C202.751083,256.718323 197.895432,253.820099 197.870911,246.064636 
	C197.799835,223.589172 197.816864,201.113281 197.866486,178.637695 
	C197.878708,173.104614 200.708939,169.940399 205.289734,169.953766 
	C209.861313,169.967102 212.821365,173.155411 212.839508,178.636993 
	C212.913834,201.112427 212.942520,223.588821 212.763657,246.063065 
	C212.745483,248.346527 211.219894,250.617981 210.092896,253.146118 
z" />
	<path fill="#FCFEFE" opacity="1.000000" stroke="none" d="
M247.914917,223.000031 
	C247.913681,230.983612 247.975464,238.467896 247.890671,245.950531 
	C247.826431,251.619858 244.736008,255.092377 240.116898,254.953384 
	C235.690079,254.820175 232.915649,251.494110 232.906372,245.997269 
	C232.868500,223.546600 232.864182,201.095795 232.910141,178.645172 
	C232.921387,173.147308 235.757950,169.955093 240.317581,169.952850 
	C244.883881,169.950623 247.848373,173.153503 247.880646,178.596558 
	C247.967377,193.230591 247.913162,207.865479 247.914917,223.000031 
z" />
	<path fill="#FDFEFE" opacity="1.000000" stroke="none" d="
M270.679810,171.617355 
	C277.842072,168.283600 282.857971,171.112213 282.895508,178.420502 
	C283.011841,201.059036 282.977173,223.698654 282.908752,246.337570 
	C282.892700,251.655426 279.718323,255.031433 275.262115,254.956268 
	C270.831085,254.881546 267.952850,251.522049 267.942688,246.082748 
	C267.900757,223.610153 267.855072,201.136902 268.032043,178.665619 
	C268.049896,176.398392 269.559845,174.142883 270.679810,171.617355 
z" />
	<path fill="#FDFFFF" opacity="1.000000" stroke="none" d="
M317.951294,247.405853 
	C316.364166,253.109955 313.392090,255.533966 309.316589,254.874054 
	C305.195190,254.206726 302.977722,251.041779 302.972198,245.584625 
	C302.949768,223.453751 302.946167,201.322800 302.973358,179.191925 
	C302.980621,173.289474 305.700104,169.981033 310.383575,169.954224 
	C315.097015,169.927231 317.950348,173.246826 317.959778,179.076248 
	C317.996399,201.706284 317.970520,224.336426 317.951294,247.405853 
z" />
</svg>