<svg version="1.1" id="Layer_1" xmlns="http://www.w3.org/2000/svg" xmlns:xlink="http://www.w3.org/1999/xlink" x="0px"
	y="0px" height="64" width="64" viewBox="0 0 512 512" enable-background="new 0 0 512 512" xml:space="preserve">
	<path fill="#00941a" opacity="1.000000" stroke="none" d="
M391.999420,291.997620 
	C375.949158,324.225952 357.207367,354.455017 336.903473,383.667572 
	C319.841278,408.216125 301.937805,432.185425 284.144379,456.216827 
	C278.876404,463.331665 272.937897,469.991394 266.905792,476.487457 
	C260.966614,482.883423 252.839981,483.014404 247.076157,476.412598 
	C237.691101,465.663116 228.380890,454.774323 219.968124,443.265198 
	C201.664261,418.224487 183.482224,393.069244 166.114716,367.376495 
	C147.457626,339.776062 130.350204,311.149841 116.543526,280.766724 
	C107.440666,260.734863 100.331421,239.994324 97.930054,217.849548 
	C94.488823,186.115509 98.835083,155.701431 112.061302,126.584297 
	C119.348228,110.542343 128.878738,96.064400 140.557526,82.827255 
	C161.702286,58.861046 187.939209,43.574589 218.792435,36.180599 
	C237.301971,31.744776 256.350250,31.926373 275.087097,33.275253 
	C301.024170,35.142487 325.015625,43.726860 346.529083,58.817177 
	C367.198944,73.315758 383.261353,91.752136 395.418274,113.804688 
	C403.499451,128.463852 409.376709,143.859924 413.133545,160.181229 
	C417.514893,179.215942 418.087799,198.356155 416.011169,217.670334 
	C413.181488,243.988800 403.866180,268.208527 391.999420,291.997620 
M335.512939,81.965210 
	C306.181000,61.551567 273.691925,53.497749 238.365662,58.310646 
	C165.728073,68.206871 114.612534,133.585510 121.789307,206.853760 
	C129.755005,288.176270 209.176605,345.192535 288.236084,325.142609 
	C343.928131,311.018768 379.307983,274.811768 390.149841,218.446976 
	C400.875916,162.684067 381.128540,117.008301 335.512939,81.965210 
z" />
	<path fill="#FFFFFF" opacity="1.000000" stroke="none" d="
M335.808899,82.167587 
	C381.128540,117.008301 400.875916,162.684067 390.149841,218.446976 
	C379.307983,274.811768 343.928131,311.018768 288.236084,325.142609 
	C209.176605,345.192535 129.755005,288.176270 121.789307,206.853760 
	C114.612534,133.585510 165.728073,68.206871 238.365662,58.310646 
	C273.691925,53.497749 306.181000,61.551567 335.808899,82.167587 
M177.832703,234.751480 
	C176.866577,235.385422 175.812775,235.918747 174.949585,236.670837 
	C171.307892,239.843674 170.313110,244.593216 172.318100,248.827423 
	C174.190002,252.780563 178.735519,255.252853 182.929672,254.598984 
	C187.542404,253.879883 191.176178,250.332718 191.736084,245.724319 
	C192.416428,240.124451 189.110916,236.826675 184.882690,233.266159 
	C184.950302,218.223740 185.017914,203.181320 185.776627,188.235046 
	C188.926315,189.762314 192.076004,191.289581 195.177429,193.777771 
	C195.156052,202.926453 195.291092,212.079407 195.042587,221.221909 
	C194.930481,225.346130 196.568893,227.569901 200.265213,229.190857 
	C211.991302,234.333221 223.570969,239.808365 235.266174,245.022705 
	C242.386566,248.197357 249.615540,251.128494 257.576660,254.409409 
	C277.157440,245.619019 296.770813,236.899078 316.250153,227.889313 
	C317.637634,227.247574 318.730957,224.500061 318.785583,222.696106 
	C319.047668,214.040100 319.030212,205.369110 318.839966,196.709427 
	C318.771790,193.605774 319.745148,191.947250 322.666626,190.698135 
	C331.389801,186.968430 339.985199,182.937988 348.601501,178.962097 
	C350.158356,178.243698 351.577576,177.226990 353.974121,175.806290 
	C351.660522,174.471161 350.350952,173.564743 348.924622,172.914581 
	C319.688751,159.588013 290.422028,146.328842 261.219360,132.930038 
	C258.210388,131.549454 255.733109,131.622803 252.763321,132.984497 
	C223.557098,146.375885 194.291077,159.636795 165.063202,172.981140 
	C163.571823,173.662064 162.273865,174.766632 160.050354,176.220108 
	C166.760422,179.478302 172.405014,182.219162 178.047394,185.902344 
	C178.144745,202.030930 178.242096,218.159500 177.832703,234.751480 
z" />
	<path fill="#2e9140" opacity="1.000000" stroke="none" d="
M178.049622,184.960007 
	C172.405014,182.219162 166.760422,179.478302 160.050354,176.220108 
	C162.273865,174.766632 163.571823,173.662064 165.063202,172.981140 
	C194.291077,159.636795 223.557098,146.375885 252.763321,132.984497 
	C255.733109,131.622803 258.210388,131.549454 261.219360,132.930038 
	C290.422028,146.328842 319.688751,159.588013 348.924622,172.914581 
	C350.350952,173.564743 351.660522,174.471161 353.974121,175.806290 
	C351.577576,177.226990 350.158356,178.243698 348.601501,178.962097 
	C339.985199,182.937988 331.389801,186.968430 322.666626,190.698135 
	C319.745148,191.947250 318.771790,193.605774 318.839966,196.709427 
	C319.030212,205.369110 319.047668,214.040100 318.785583,222.696106 
	C318.730957,224.500061 317.637634,227.247574 316.250153,227.889313 
	C296.770813,236.899078 277.157440,245.619019 257.241333,253.810608 
	C256.934143,243.725327 257.095825,234.235687 256.872742,224.755112 
	C256.830353,222.953857 255.722504,220.198807 254.332550,219.555527 
	C234.708679,210.473175 214.950958,201.680054 195.225677,192.816849 
	C192.076004,191.289581 188.926315,189.762314 185.132278,187.998505 
	C182.341827,186.827972 180.195724,185.893982 178.049622,184.960007 
z" />
	<path fill="#3f894c" opacity="1.000000" stroke="none" d="
M195.201553,193.297302 
	C214.950958,201.680054 234.708679,210.473175 254.332550,219.555527 
	C255.722504,220.198807 256.830353,222.953857 256.872742,224.755112 
	C257.095825,234.235687 256.934143,243.725327 256.850891,253.690399 
	C249.615540,251.128494 242.386566,248.197357 235.266174,245.022705 
	C223.570969,239.808365 211.991302,234.333221 200.265213,229.190857 
	C196.568893,227.569901 194.930481,225.346130 195.042587,221.221909 
	C195.291092,212.079407 195.156052,202.926453 195.201553,193.297302 
z" />
	<path fill="#00941a" opacity="1.000000" stroke="none" d="
M184.748734,234.228653 
	C189.110916,236.826675 192.416428,240.124451 191.736084,245.724319 
	C191.176178,250.332718 187.542404,253.879883 182.929672,254.598984 
	C178.735519,255.252853 174.190002,252.780563 172.318100,248.827423 
	C170.313110,244.593216 171.307892,239.843674 174.949585,236.670837 
	C175.812775,235.918747 176.866577,235.385422 178.485413,234.492950 
	C181.008331,234.232498 182.878540,234.230576 184.748734,234.228653 
z" />
	<path fill="#00941a" opacity="1.000000" stroke="none" d="
M184.815704,233.747406 
	C182.878540,234.230576 181.008331,234.232498 178.738785,234.261246 
	C178.242096,218.159500 178.144745,202.030930 178.048508,185.431183 
	C180.195724,185.893982 182.341827,186.827972 184.786728,187.950424 
	C185.017914,203.181320 184.950302,218.223740 184.815704,233.747406 
z" />
</svg>