<svg version="1.1" id="Layer_1" xmlns="http://www.w3.org/2000/svg" xmlns:xlink="http://www.w3.org/1999/xlink" x="0px"
	y="0px" height="64" width="64" viewBox="0 0 512 512" enable-background="new 0 0 512 512" xml:space="preserve">
	<path fill="#ef7700" opacity="1.000000" stroke="none" d="
M109.024254,262.845947 
	C98.942665,236.844040 95.097641,210.217194 97.138313,182.910736 
	C98.523453,164.375961 103.537872,146.604950 110.825539,129.399704 
	C119.077927,109.916878 130.512680,92.522713 145.161407,77.539658 
	C166.884491,55.320751 193.252991,40.766243 223.958679,35.202827 
	C242.050583,31.924841 260.419647,32.201328 278.769470,33.916897 
	C291.826263,35.137608 304.407227,37.991520 316.546570,42.869858 
	C330.031342,48.288868 342.507935,55.341434 354.013611,64.358124 
	C369.178040,76.242065 381.364746,90.578682 391.393890,106.866829 
	C402.539001,124.967369 409.922607,144.431793 414.227753,165.347656 
	C417.475067,181.124237 417.547607,196.919266 416.762848,212.671371 
	C415.936615,229.256409 411.352234,245.315887 405.538666,260.897705 
	C397.286316,283.016052 386.864044,304.093658 374.388702,324.134003 
	C362.049622,343.955444 350.192719,364.115082 337.011597,383.364410 
	C321.582184,405.897003 305.086426,427.707489 288.774689,449.623901 
	C281.948730,458.795197 274.685303,467.680634 267.100586,476.234772 
	C261.068848,483.037415 252.930084,483.113159 246.984177,476.316132 
	C237.513428,465.489655 228.110657,454.526093 219.636673,442.921265 
	C201.510239,418.097748 183.516388,393.148926 166.395065,367.629578 
	C154.300751,349.602936 143.147797,330.875427 132.658173,311.862976 
	C123.967331,296.110779 116.860237,279.484772 109.024254,262.845947 
M378.552490,131.994827 
	C351.447693,79.351044 295.202637,49.837906 238.052628,58.271183 
	C161.840027,69.517410 110.847969,139.186874 122.927170,215.564835 
	C135.053574,292.241241 212.464630,343.724518 288.084351,325.404846 
	C373.707489,304.661743 417.082520,212.601791 378.552490,131.994827 
z" />
	<path fill="#FEFFFF" opacity="1.000000" stroke="none" d="
M378.725739,132.326538 
	C417.082520,212.601791 373.707489,304.661743 288.084351,325.404846 
	C212.464630,343.724518 135.053574,292.241241 122.927170,215.564835 
	C110.847969,139.186874 161.840027,69.517410 238.052628,58.271183 
	C295.202637,49.837906 351.447693,79.351044 378.725739,132.326538 
M334.016418,135.025940 
	C333.983521,133.195633 333.925720,131.365372 333.921814,129.535004 
	C333.896942,117.899391 332.053497,116.083611 320.208771,116.082863 
	C291.410858,116.081047 262.612946,116.081757 233.815048,116.082436 
	C219.332870,116.082779 204.850494,116.040405 190.368591,116.105423 
	C182.986221,116.138557 180.212357,119.022400 180.087509,126.460884 
	C180.034439,129.622543 179.997009,132.784485 179.543549,136.488846 
	C173.635056,145.959518 167.726562,155.430206 161.308090,165.572830 
	C161.207092,169.397675 161.026840,173.222336 161.019089,177.047379 
	C160.988434,192.140137 165.379288,197.614838 180.122513,201.942108 
	C180.122513,224.494522 180.122513,247.046936 180.122513,269.581848 
	C231.791107,269.581848 282.521759,269.581848 333.867676,269.581848 
	C333.867676,246.526993 333.867676,223.766342 334.624603,200.817963 
	C343.141144,199.542618 350.257721,195.601288 351.885223,186.843765 
	C353.202759,179.753998 352.173553,172.228119 351.866638,164.285751 
	C345.926392,154.839752 339.986145,145.393768 334.016418,135.025940 
z" />
	<path fill="#f0953a" opacity="1.000000" stroke="none" d="
M333.867676,201.005692 
	C333.867676,223.766342 333.867676,246.526993 333.867676,269.581848 
	C282.521759,269.581848 231.791107,269.581848 180.122513,269.581848 
	C180.122513,247.046936 180.122513,224.494522 180.504944,201.423523 
	C190.319000,199.738754 196.368530,194.386978 199.479324,184.925095 
	C202.556503,194.476608 208.412064,200.230652 217.705811,200.580002 
	C227.570663,200.950836 234.284454,195.627289 237.464417,185.855103 
	C246.082321,206.507156 269.485992,204.567200 276.461548,185.436920 
	C279.641754,195.716568 286.502594,201.041260 296.552856,200.555267 
	C305.849792,200.105698 311.589935,194.208389 314.574677,184.797440 
	C317.630096,194.802383 324.115906,199.946884 333.867676,201.005692 
z" />
	<path fill="#A7CDF4" opacity="1.000000" stroke="none" d="
M334.246155,200.911835 
	C324.115906,199.946884 317.630096,194.802383 314.574677,184.797440 
	C311.589935,194.208389 305.849792,200.105698 296.552856,200.555267 
	C286.502594,201.041260 279.641754,195.716568 276.461548,185.436920 
	C269.485992,204.567200 246.082321,206.507156 237.464417,185.855103 
	C234.284454,195.627289 227.570663,200.950836 217.705811,200.580002 
	C208.412064,200.230652 202.556503,194.476608 199.479324,184.925095 
	C196.368530,194.386978 190.319000,199.738754 180.509949,200.955292 
	C165.379288,197.614838 160.988434,192.140137 161.019089,177.047379 
	C161.026840,173.222336 161.207092,169.397675 161.875610,165.537506 
	C163.920135,165.657410 165.397095,165.947784 166.874161,165.948349 
	C226.916351,165.971176 286.958557,165.976822 347.000702,165.922943 
	C348.729187,165.921387 350.457062,165.253098 352.185242,164.895691 
	C352.173553,172.228119 353.202759,179.753998 351.885223,186.843765 
	C350.257721,195.601288 343.141144,199.542618 334.246155,200.911835 
z" />
	<path fill="#ef7700" opacity="1.000000" stroke="none" d="
M352.025940,164.590729 
	C350.457062,165.253098 348.729187,165.921387 347.000702,165.922943 
	C286.958557,165.976822 226.916351,165.971176 166.874161,165.948349 
	C165.397095,165.947784 163.920135,165.657410 162.130585,165.201538 
	C167.726562,155.430206 173.635056,145.959518 180.218292,136.174011 
	C191.036850,135.842636 201.180679,135.804321 211.324493,135.813446 
	C252.231628,135.850266 293.138763,135.901718 334.045898,135.947769 
	C339.986145,145.393768 345.926392,154.839752 352.025940,164.590729 
z" />
	<path fill="#A7CCF4" opacity="1.000000" stroke="none" d="
M334.031158,135.486847 
	C293.138763,135.901718 252.231628,135.850266 211.324493,135.813446 
	C201.180679,135.804321 191.036850,135.842636 180.422760,135.902725 
	C179.997009,132.784485 180.034439,129.622543 180.087509,126.460884 
	C180.212357,119.022400 182.986221,116.138557 190.368591,116.105423 
	C204.850494,116.040405 219.332870,116.082779 233.815048,116.082436 
	C262.612946,116.081757 291.410858,116.081047 320.208771,116.082863 
	C332.053497,116.083611 333.896942,117.899391 333.921814,129.535004 
	C333.925720,131.365372 333.983521,133.195633 334.031158,135.486847 
z" />
</svg>